<svg width="25" height="25" viewBox="0 0 25 25" fill="none" xmlns="http://www.w3.org/2000/svg">
<path d="M12.5 1.82288V5.00517M20.0521 4.94788L17.8021 7.19788M23.1771 12.5H19.9948M20.0521 20.052L17.8021 17.802M12.5 23.177V19.9947M4.94791 20.052L7.19791 17.802M1.82291 12.5H5.00521M4.94791 4.94788L7.19791 7.19788M12.5 6.77079C13.6331 6.77079 14.7408 7.1068 15.683 7.73633C16.6251 8.36586 17.3594 9.26063 17.7931 10.3075C18.2267 11.3544 18.3401 12.5063 18.1191 13.6177C17.898 14.729 17.3524 15.7499 16.5511 16.5511C15.7499 17.3523 14.7291 17.898 13.6177 18.119C12.5064 18.3401 11.3544 18.2266 10.3075 17.793C9.26067 17.3594 8.3659 16.6251 7.73637 15.6829C7.10684 14.7408 6.77083 13.6331 6.77083 12.5C6.77083 10.9805 7.37444 9.52325 8.44886 8.44883C9.52329 7.3744 10.9805 6.77079 12.5 6.77079Z" stroke="black" stroke-linecap="round" stroke-linejoin="round"/>
</svg>
