<svg width="30" height="25" viewBox="0 0 30 25" fill="none" xmlns="http://www.w3.org/2000/svg">
<path d="M5.92578 3.125C5.92578 2.2962 6.3052 1.50134 6.98056 0.915291C7.65592 0.32924 8.57191 0 9.52702 0L20.3307 0C21.2859 0 22.2018 0.32924 22.8772 0.915291C23.5526 1.50134 23.932 2.2962 23.932 3.125V21.875C23.932 22.7038 23.5526 23.4987 22.8772 24.0847C22.2018 24.6708 21.2859 25 20.3307 25H9.52702C8.57191 25 7.65592 24.6708 6.98056 24.0847C6.3052 23.4987 5.92578 22.7038 5.92578 21.875V3.125ZM16.7295 20.3125C16.7295 19.8981 16.5398 19.5007 16.2021 19.2076C15.8644 18.9146 15.4064 18.75 14.9289 18.75C14.4513 18.75 13.9933 18.9146 13.6557 19.2076C13.318 19.5007 13.1283 19.8981 13.1283 20.3125C13.1283 20.7269 13.318 21.1243 13.6557 21.4174C13.9933 21.7104 14.4513 21.875 14.9289 21.875C15.4064 21.875 15.8644 21.7104 16.2021 21.4174C16.5398 21.1243 16.7295 20.7269 16.7295 20.3125Z" fill="black"/>
</svg>
