<svg width="16" height="16" viewBox="0 0 16 16" fill="none" xmlns="http://www.w3.org/2000/svg">
<g clip-path="url(#clip0_121_12)">
<path d="M14 13.292C14.9905 12.1693 15.6461 10.7911 15.8922 9.31418C16.1382 7.83729 15.9649 6.32099 15.3919 4.93774C14.8189 3.55448 13.8692 2.35979 12.6508 1.48954C11.4324 0.619291 9.99431 0.108414 8.49998 0.0150146V7.79302L14 13.292ZM13.292 14L8.49998 9.20601V15.984C10.2741 15.8749 11.9608 15.1758 13.292 13.998V14ZM7.49998 15.985V9.20701L2.70798 14C4.0393 15.1775 5.726 15.8762 7.49998 15.985ZM1.99998 13.292C1.00944 12.1693 0.353862 10.7911 0.107801 9.31418C-0.138261 7.83729 0.0350724 6.32099 0.608086 4.93774C1.1811 3.55448 2.1308 2.35979 3.34916 1.48954C4.56752 0.619291 6.00565 0.108414 7.49998 0.0150146V7.79302L1.99998 13.292Z" fill="black"/>
</g>
<defs>
<clipPath id="clip0_121_12">
<rect width="16" height="16" fill="white"/>
</clipPath>
</defs>
</svg>
