<svg width="21" height="22" viewBox="0 0 21 22" fill="none" xmlns="http://www.w3.org/2000/svg">
<g clip-path="url(#clip0_95_229)">
<path d="M5.83325 3.17773H16.3333V4.12496H5.83325V3.17773Z" fill="black"/>
<path d="M16.9167 4.88883H5.75165C5.60279 4.88662 5.45589 4.85285 5.31982 4.78955C5.18376 4.72625 5.06134 4.63473 4.95995 4.52052C4.85856 4.40631 4.7803 4.27177 4.72989 4.12501C4.67949 3.97825 4.65797 3.82232 4.66665 3.66661C4.66593 3.35675 4.77757 3.05817 4.979 2.83127C5.18043 2.60436 5.4566 2.46608 5.75165 2.44439H16.9167C17.0714 2.44439 17.2197 2.38001 17.3291 2.2654C17.4385 2.15079 17.5 1.99536 17.5 1.83328C17.5 1.6712 17.4385 1.51576 17.3291 1.40116C17.2197 1.28655 17.0714 1.22217 16.9167 1.22217H5.75165C5.14708 1.24435 4.57436 1.51165 4.15428 1.96769C3.73421 2.42373 3.49962 3.03286 3.49999 3.66661C3.49415 3.76633 3.49415 3.86634 3.49999 3.96606C3.49437 4.01477 3.49437 4.06401 3.49999 4.11272V18.3333C3.49962 18.967 3.73421 19.5762 4.15428 20.0322C4.57436 20.4882 5.14708 20.7555 5.75165 20.7777H16.9167C17.0714 20.7777 17.2197 20.7133 17.3291 20.5987C17.4385 20.4841 17.5 20.3287 17.5 20.1666V5.54272C17.5003 5.37646 17.4402 5.21631 17.3318 5.09484C17.2235 4.97338 17.075 4.89971 16.9167 4.88883ZM16.3333 19.5555H5.75165C5.4566 19.5338 5.18043 19.3955 4.979 19.1686C4.77757 18.9417 4.66593 18.6431 4.66665 18.3333V5.83606C4.99833 6.02774 5.37302 6.12271 5.75165 6.11106H16.3333V19.5555Z" fill="black"/>
</g>
<defs>
<clipPath id="clip0_95_229">
<rect width="21" height="22" fill="white"/>
</clipPath>
</defs>
</svg>
