<svg width="30" height="25" viewBox="0 0 30 25" fill="none" xmlns="http://www.w3.org/2000/svg">
<g clip-path="url(#clip0_95_287)">
<path d="M2.1722 9.375V15.625H18.3778V17.1875H0.371582V7.8125H14.9032C15.0438 8.09733 15.2126 8.36995 15.4096 8.63037C15.6065 8.89079 15.8316 9.139 16.0848 9.375H2.1722ZM27.2543 7.8125H29.1815V17.1875H23.7797V15.625H27.3809V9.375H26.0726C26.3165 9.139 26.5369 8.89079 26.7338 8.63037C26.9307 8.36995 27.1042 8.09733 27.2543 7.8125ZM21.979 9.30176V21.875L21.0787 23.4375L20.1784 21.875V9.30176C19.6532 9.2041 19.1702 9.03727 18.7295 8.80127C18.2887 8.56527 17.9089 8.28044 17.59 7.94678C17.2712 7.61312 17.0226 7.23063 16.8444 6.79932C16.6663 6.368 16.5772 5.92448 16.5772 5.46875C16.5772 4.93164 16.6944 4.42708 16.9289 3.95508C17.1633 3.48307 17.4822 3.06803 17.8854 2.70996C18.2887 2.35189 18.767 2.07113 19.3203 1.86768C19.8736 1.66423 20.4598 1.5625 21.0787 1.5625C21.6977 1.5625 22.2791 1.66423 22.8231 1.86768C23.367 2.07113 23.8406 2.35189 24.2439 2.70996C24.6471 3.06803 24.9707 3.48307 25.2145 3.95508C25.4584 4.42708 25.5803 4.93164 25.5803 5.46875C25.5803 5.93262 25.4912 6.37614 25.313 6.79932C25.1348 7.22249 24.8863 7.60091 24.5674 7.93457C24.2486 8.26823 23.8687 8.55713 23.428 8.80127C22.9872 9.04541 22.5042 9.21224 21.979 9.30176ZM23.7797 5.46875C23.7797 5.14323 23.7093 4.83805 23.5686 4.55322C23.428 4.26839 23.2357 4.02018 22.9919 3.80859C22.748 3.59701 22.462 3.43018 22.1338 3.30811C21.8055 3.18604 21.4538 3.125 21.0787 3.125C20.7036 3.125 20.3519 3.18604 20.0237 3.30811C19.6954 3.43018 19.4094 3.59701 19.1656 3.80859C18.9217 4.02018 18.7295 4.26839 18.5888 4.55322C18.4481 4.83805 18.3778 5.14323 18.3778 5.46875C18.3778 5.79427 18.4481 6.09945 18.5888 6.38428C18.7295 6.66911 18.9217 6.91732 19.1656 7.12891C19.4094 7.34049 19.6954 7.50732 20.0237 7.62939C20.3519 7.75146 20.7036 7.8125 21.0787 7.8125C21.4538 7.8125 21.8055 7.75146 22.1338 7.62939C22.462 7.50732 22.748 7.34049 22.9919 7.12891C23.2357 6.91732 23.428 6.66911 23.5686 6.38428C23.7093 6.09945 23.7797 5.79427 23.7797 5.46875Z" fill="black"/>
</g>
<defs>
<clipPath id="clip0_95_287">
<rect width="28.8099" height="25" fill="white" transform="translate(0.371582)"/>
</clipPath>
</defs>
</svg>
