<svg width="19" height="19" viewBox="0 0 19 19" fill="none" xmlns="http://www.w3.org/2000/svg">
<path d="M11.3547 11.0888L12.1972 11.1772V18.0352L9.86999 15.5501V11.5966L10.5459 11.9267L11.3547 11.0888ZM7.64557 11.0888L6.8026 11.1772V18.0352L9.12976 15.5501V11.5966L8.45389 11.9267L7.64557 11.0888ZM14.0276 6.79228L14.3003 7.74131L13.4818 8.29313L13.4133 9.27916L12.4555 9.51759L12.0546 10.4199L11.0727 10.3161L10.3871 11.0245L9.50012 10.5911L8.61313 11.0245L7.92753 10.3138L6.94562 10.4175L6.54472 9.51529L5.58693 9.27916L5.51839 8.2945L4.69761 7.74083L4.97029 6.79183L4.3916 5.99235L4.97214 5.19375L4.69761 4.24661L5.51654 3.6948L5.58508 2.7101L6.54472 2.47401L6.94562 1.57177L7.92753 1.67545L8.61313 0.964844L9.50012 1.39817L10.3871 0.964844L11.0727 1.67545L12.0546 1.57177L12.4555 2.47401L13.4133 2.71244L13.4818 3.6971L14.3003 4.24891L14.0276 5.19795L14.6086 5.99235L14.0276 6.79228ZM12.2013 5.99235C12.2013 5.46212 12.0441 4.94381 11.7495 4.50294C11.455 4.06208 11.0363 3.71847 10.5464 3.51556C10.0565 3.31265 9.51751 3.25956 8.99748 3.363C8.47744 3.46645 7.99976 3.72177 7.62484 4.0967C7.24991 4.47162 6.99459 4.9493 6.89114 5.46934C6.7877 5.98937 6.84079 6.5284 7.0437 7.01827C7.24661 7.50813 7.59022 7.92682 8.03109 8.2214C8.47195 8.51597 8.99027 8.6732 9.52049 8.6732C10.2312 8.67209 10.9124 8.38929 11.4149 7.88677C11.9174 7.38426 12.2002 6.70301 12.2013 5.99235ZM9.52049 4.05216C9.13677 4.05216 8.76166 4.16595 8.4426 4.37913C8.12355 4.59232 7.87487 4.89532 7.72802 5.24984C7.58118 5.60435 7.54275 5.99445 7.61761 6.3708C7.69247 6.74715 7.87725 7.09286 8.14858 7.36419C8.41991 7.63553 8.76561 7.82031 9.14196 7.89518C9.51831 7.97004 9.90841 7.93163 10.2629 7.78479C10.6174 7.63795 10.9205 7.38928 11.1336 7.07023C11.3468 6.75118 11.4606 6.37607 11.4606 5.99235C11.4592 5.47837 11.2542 4.98588 10.8907 4.62256C10.5271 4.25925 10.0345 4.05467 9.52049 4.05357V4.05216Z" fill="black"/>
</svg>
