<svg width="21" height="20" viewBox="0 0 21 20" fill="none" xmlns="http://www.w3.org/2000/svg">
<path fill-rule="evenodd" clip-rule="evenodd" d="M5.23387 3.63605C5.42134 3.82358 5.52666 4.07788 5.52666 4.34305C5.52666 4.60821 5.42134 4.86252 5.23387 5.05005C4.58379 5.70007 4.06811 6.47177 3.71628 7.3211C3.36445 8.17042 3.18337 9.08074 3.18337 10C3.18337 10.9194 3.36445 11.8297 3.71628 12.679C4.06811 13.5283 4.58379 14.3 5.23387 14.95C5.32938 15.0423 5.40557 15.1526 5.45797 15.2746C5.51038 15.3966 5.53797 15.5279 5.53912 15.6606C5.54028 15.7934 5.51498 15.9251 5.4647 16.048C5.41441 16.1709 5.34016 16.2825 5.24627 16.3764C5.15238 16.4703 5.04072 16.5446 4.91783 16.5949C4.79493 16.6452 4.66325 16.6705 4.53047 16.6693C4.39769 16.6681 4.26647 16.6406 4.14447 16.5882C4.02246 16.5357 3.91212 16.4596 3.81987 16.364C2.98413 15.5283 2.32119 14.5362 1.86889 13.4442C1.41659 12.3523 1.1838 11.182 1.1838 10C1.1838 8.81814 1.41659 7.64781 1.86889 6.55587C2.32119 5.46393 2.98413 4.47178 3.81987 3.63605C4.0074 3.44858 4.26171 3.34326 4.52687 3.34326C4.79204 3.34326 5.04635 3.44858 5.23387 3.63605ZM15.1339 3.63605C15.3214 3.44858 15.5757 3.34326 15.8409 3.34326C16.106 3.34326 16.3603 3.44858 16.5479 3.63605C17.3836 4.47178 18.0466 5.46393 18.4989 6.55587C18.9512 7.64781 19.184 8.81814 19.184 10C19.184 11.182 18.9512 12.3523 18.4989 13.4442C18.0466 14.5362 17.3836 15.5283 16.5479 16.364C16.4556 16.4596 16.3453 16.5357 16.2233 16.5882C16.1013 16.6406 15.9701 16.6681 15.8373 16.6693C15.7045 16.6705 15.5728 16.6452 15.4499 16.5949C15.327 16.5446 15.2154 16.4703 15.1215 16.3764C15.0276 16.2825 14.9533 16.1709 14.9031 16.048C14.8528 15.9251 14.8275 15.7934 14.8286 15.6606C14.8298 15.5279 14.8574 15.3966 14.9098 15.2746C14.9622 15.1526 15.0384 15.0423 15.1339 14.95C15.784 14.3 16.2996 13.5283 16.6515 12.679C17.0033 11.8297 17.1844 10.9194 17.1844 10C17.1844 9.08074 17.0033 8.17042 16.6515 7.3211C16.2996 6.47177 15.784 5.70007 15.1339 5.05005C14.9464 4.86252 14.8411 4.60821 14.8411 4.34305C14.8411 4.07788 14.9464 3.82358 15.1339 3.63605ZM8.06287 6.46405C8.25034 6.65158 8.35566 6.90588 8.35566 7.17105C8.35566 7.43621 8.25034 7.69052 8.06287 7.87805C7.78424 8.15663 7.56322 8.48737 7.41242 8.85138C7.26163 9.21539 7.18401 9.60554 7.18401 9.99955C7.18401 10.3936 7.26163 10.7837 7.41242 11.1477C7.56322 11.5117 7.78424 11.8425 8.06287 12.121C8.15572 12.214 8.22935 12.3242 8.27958 12.4456C8.3298 12.567 8.35562 12.6971 8.35558 12.8284C8.35553 12.9598 8.32961 13.0898 8.2793 13.2111C8.229 13.3325 8.15528 13.4427 8.06237 13.5355C7.96946 13.6284 7.85918 13.702 7.73781 13.7523C7.61644 13.8025 7.48637 13.8283 7.35502 13.8283C7.22367 13.8282 7.09362 13.8023 6.97229 13.752C6.85095 13.7017 6.74072 13.628 6.64787 13.535C5.71052 12.5974 5.18394 11.3259 5.18394 10C5.18394 8.67423 5.71052 7.40269 6.64787 6.46505C6.74075 6.37207 6.85103 6.29831 6.97243 6.24799C7.09383 6.19766 7.22396 6.17176 7.35537 6.17176C7.48679 6.17176 7.61692 6.19766 7.73831 6.24799C7.85971 6.29831 7.97 6.37107 8.06287 6.46405ZM12.3049 6.46505C12.3977 6.37207 12.508 6.29831 12.6294 6.24799C12.7508 6.19766 12.881 6.17176 13.0124 6.17176C13.1438 6.17176 13.2739 6.19766 13.3953 6.24799C13.5167 6.29831 13.627 6.37207 13.7199 6.46505C14.1843 6.92936 14.5527 7.48061 14.8041 8.08733C15.0554 8.69404 15.1848 9.34433 15.1848 10.001C15.1848 10.6578 15.0554 11.3081 14.8041 11.9148C14.5527 12.5215 14.1843 13.0727 13.7199 13.537C13.5322 13.7247 13.2777 13.8301 13.0124 13.8301C12.747 13.8301 12.4925 13.7247 12.3049 13.537C12.1172 13.3494 12.0118 13.0949 12.0118 12.8295C12.0118 12.5642 12.1172 12.3097 12.3049 12.122C12.8673 11.5595 13.1832 10.7965 13.1832 10.001C13.1832 9.20556 12.8673 8.44263 12.3049 7.88005C12.2119 7.78718 12.1381 7.67689 12.0878 7.55549C12.0375 7.43409 12.0116 7.30396 12.0116 7.17255C12.0116 7.04113 12.0375 6.91101 12.0878 6.78961C12.1381 6.66821 12.2119 6.55792 12.3049 6.46505ZM10.1839 9.00005C10.4491 9.00005 10.7034 9.10541 10.891 9.29294C11.0785 9.48048 11.1839 9.73483 11.1839 10V10.01C11.1839 10.2753 11.0785 10.5296 10.891 10.7172C10.7034 10.9047 10.4491 11.01 10.1839 11.01C9.91866 11.01 9.6643 10.9047 9.47677 10.7172C9.28923 10.5296 9.18387 10.2753 9.18387 10.01V10C9.18387 9.73483 9.28923 9.48048 9.47677 9.29294C9.6643 9.10541 9.91866 9.00005 10.1839 9.00005Z" fill="black"/>
</svg>
