<svg width="25" height="27" viewBox="0 0 25 27" fill="none" xmlns="http://www.w3.org/2000/svg">
<path fill-rule="evenodd" clip-rule="evenodd" d="M21.5696 26.708C21.3741 26.8954 21.1092 27.0007 20.8328 27.0007C20.5565 27.0007 20.2915 26.8954 20.0961 26.708L9.15495 16.208C9.08937 16.1461 9.0326 16.0761 8.98615 16H6.24356C6.02719 15.9998 5.81623 15.935 5.63996 15.8146C5.4637 15.6942 5.33086 15.5241 5.25989 15.328L0.258206 1.52796C0.182764 1.31823 0.182149 1.09037 0.256457 0.880262C0.330766 0.670154 0.475777 0.489729 0.668662 0.367394C0.861548 0.245058 1.09135 0.187759 1.32189 0.204518C1.55244 0.221276 1.77062 0.311141 1.94211 0.459964L13.1959 10.26C13.3035 10.3536 13.3894 10.4679 13.4483 10.5953C13.5072 10.7227 13.5376 10.8606 13.5377 11V11.634C13.6169 11.6779 13.6898 11.7317 13.7544 11.794L24.6956 22.294C24.891 22.4815 25.0007 22.7358 25.0007 23.001C25.0007 23.2661 24.891 23.5204 24.6956 23.708L21.5696 26.708ZM13.0167 13.914L11.364 15.5L20.8318 24.586L22.4844 23L13.0167 13.914ZM3.56974 4.57596L6.98339 14H8.93821L11.4536 11.586V11.44L3.56974 4.57596Z" fill="#00A5FF"/>
</svg>
