<svg width="29" height="24" viewBox="0 0 29 24" fill="none" xmlns="http://www.w3.org/2000/svg">
<path d="M7.66288 2C6.12889 2.129 5.09604 2.419 4.32434 3.076C2.94211 4.253 2.94211 6.148 2.94211 9.939V13.959C2.94211 17.749 2.94211 19.645 4.32434 20.823C5.70658 22.001 7.93227 22 12.3825 22H14.7434C19.1937 22 21.4193 22 22.8016 20.823C24.0568 19.753 24.1732 18.106 24.1838 14.977" stroke="black" stroke-width="1.5" stroke-linecap="round" stroke-linejoin="round"/>
<path d="M12.3825 6.99992L13.5624 10.4999C14.2211 11.6099 15.0481 11.8999 17.1032 11.9999C18.7372 11.9659 19.6854 11.8019 20.4947 11.2039C21.0464 10.7959 21.2958 10.1809 21.417 9.56892L21.8217 7.49992M24.772 5.49992V10.4999M10.118 4.93292C11.9849 3.61592 13.6482 2.90892 17.0985 2.13092C17.4878 2.04356 17.8973 2.04529 18.2855 2.13592C21.3394 2.84992 22.9886 3.48392 25.1978 4.89392C25.292 4.95392 25.3202 5.06592 25.2543 5.14892C24.5332 6.05092 22.9227 6.78192 18.9725 8.08392C18.1497 8.35305 17.2378 8.34876 16.4186 8.07192C12.2119 6.65192 10.2779 5.89192 10.0427 5.10292C10.035 5.07143 10.038 5.03875 10.0514 5.00866C10.0647 4.97857 10.0878 4.95231 10.118 4.93292Z" stroke="black" stroke-width="1.5" stroke-linecap="round" stroke-linejoin="round"/>
</svg>
