<svg width="52" height="52" viewBox="0 0 52 52" fill="none" xmlns="http://www.w3.org/2000/svg">
<g filter="url(#filter0_dddd_150_2)">
<path d="M44.3749 9.3021C42.4154 7.39919 39.7938 6.33113 37.0624 6.32294H15.0624C13.7049 6.30365 12.357 6.55369 11.0968 7.0586C9.83652 7.5635 8.68886 8.31326 7.72018 9.2645C6.7515 10.2157 5.98103 11.3496 5.45332 12.6005C4.9256 13.8514 4.65112 15.1945 4.64575 16.5521V33.4479C4.65111 34.7939 4.92261 36.1256 5.44462 37.3663C5.96664 38.607 6.72886 39.7322 7.68742 40.6771C9.63614 42.5989 12.263 43.6766 14.9999 43.6771H36.9999C39.7369 43.6766 42.3637 42.5989 44.3124 40.6771C45.2775 39.7371 46.0441 38.6129 46.5666 37.3711C47.0891 36.1293 47.3569 34.7952 47.3541 33.4479V16.5521C47.3631 15.2065 47.1044 13.8725 46.5929 12.6278C46.0814 11.3831 45.3275 10.2526 44.3749 9.3021ZM25.2916 34.8229C24.8772 34.8229 24.4798 34.6583 24.1867 34.3653C23.8937 34.0723 23.7291 33.6748 23.7291 33.2604C23.7284 32.629 23.6028 32.0039 23.3597 31.4211C23.1166 30.8383 22.7607 30.3094 22.3124 29.8646C21.3768 28.9993 20.1493 28.5186 18.8749 28.5186C17.6005 28.5186 16.373 28.9993 15.4374 29.8646C14.9873 30.308 14.6302 30.8367 14.3869 31.4198C14.1437 32.0029 14.0192 32.6286 14.0208 33.2604C14.0208 33.6748 13.8561 34.0723 13.5631 34.3653C13.2701 34.6583 12.8727 34.8229 12.4583 34.8229C12.0439 34.8229 11.6464 34.6583 11.3534 34.3653C11.0604 34.0723 10.8958 33.6748 10.8958 33.2604C10.8941 32.2152 11.0994 31.18 11.4999 30.2146C11.9004 29.2492 12.4881 28.3726 13.2291 27.6354C13.9426 26.892 14.791 26.291 15.7291 25.8646C14.8858 25.3465 14.1899 24.6202 13.7083 23.7555C13.2267 22.8909 12.9756 21.9168 12.9791 20.9271C12.9791 19.38 13.5937 17.8963 14.6876 16.8023C15.7816 15.7084 17.2653 15.0938 18.8124 15.0938C20.3595 15.0938 21.8432 15.7084 22.9372 16.8023C24.0312 17.8963 24.6458 19.38 24.6458 20.9271C24.6581 21.909 24.4196 22.8778 23.953 23.7418C23.4863 24.6058 22.8069 25.3365 21.9791 25.8646C22.9312 26.2604 23.802 26.8334 24.5416 27.5521C26.0229 29.0512 26.8602 31.0696 26.8749 33.1771C26.8895 33.3917 26.8591 33.607 26.7856 33.8091C26.712 34.0112 26.597 34.1957 26.4478 34.3508C26.2987 34.5058 26.1188 34.6279 25.9197 34.7092C25.7205 34.7905 25.5066 34.8292 25.2916 34.8229ZM38.8958 32.9896H31.4166C31.0022 32.9896 30.6048 32.825 30.3117 32.532C30.0187 32.2389 29.8541 31.8415 29.8541 31.4271C29.8541 31.0127 30.0187 30.6153 30.3117 30.3223C30.6048 30.0292 31.0022 29.8646 31.4166 29.8646H38.8958C39.3102 29.8646 39.7076 30.0292 40.0006 30.3223C40.2936 30.6153 40.4583 31.0127 40.4583 31.4271C40.4583 31.8415 40.2936 32.2389 40.0006 32.532C39.7076 32.825 39.3102 32.9896 38.8958 32.9896ZM29.8541 24.9896C29.8541 24.5752 30.0187 24.1778 30.3117 23.8847C30.6048 23.5917 31.0022 23.4271 31.4166 23.4271H34.6249C35.0393 23.4271 35.4368 23.5917 35.7298 23.8847C36.0228 24.1778 36.1874 24.5752 36.1874 24.9896C36.1874 25.404 36.0228 25.8014 35.7298 26.0945C35.4368 26.3875 35.0393 26.5521 34.6249 26.5521H31.4166C31.2106 26.5549 31.0062 26.5164 30.8153 26.4389C30.6245 26.3613 30.4511 26.2464 30.3055 26.1007C30.1598 25.955 30.0448 25.7817 29.9673 25.5908C29.8898 25.4 29.8513 25.1956 29.8541 24.9896ZM38.8958 20.1354H31.4166C31.0022 20.1354 30.6048 19.9708 30.3117 19.6778C30.0187 19.3848 29.8541 18.9873 29.8541 18.5729C29.8541 18.1585 30.0187 17.7611 30.3117 17.4681C30.6048 17.1751 31.0022 17.0104 31.4166 17.0104H38.8958C39.3102 17.0104 39.7076 17.1751 40.0006 17.4681C40.2936 17.7611 40.4583 18.1585 40.4583 18.5729C40.4583 18.9873 40.2936 19.3848 40.0006 19.6778C39.7076 19.9708 39.3102 20.1354 38.8958 20.1354Z" fill="white"/>
<path d="M18.8751 23.7188C19.2307 23.7188 19.5829 23.6487 19.9115 23.5126C20.2401 23.3765 20.5387 23.177 20.7902 22.9255C21.0417 22.674 21.2411 22.3755 21.3773 22.0469C21.5134 21.7183 21.5834 21.3661 21.5834 21.0105C21.5834 20.6548 21.5134 20.3026 21.3773 19.974C21.2411 19.6454 21.0417 19.3469 20.7902 19.0954C20.5387 18.8439 20.2401 18.6444 19.9115 18.5083C19.5829 18.3722 19.2307 18.3021 18.8751 18.3021C18.1568 18.3021 17.4679 18.5875 16.96 19.0954C16.4521 19.6033 16.1667 20.2922 16.1667 21.0105C16.1667 21.7288 16.4521 22.4176 16.96 22.9255C17.4679 23.4334 18.1568 23.7188 18.8751 23.7188Z" fill="white"/>
</g>
<defs>
<filter id="filter0_dddd_150_2" x="-3" y="0" width="58" height="58" filterUnits="userSpaceOnUse" color-interpolation-filters="sRGB">
<feFlood flood-opacity="0" result="BackgroundImageFix"/>
<feColorMatrix in="SourceAlpha" type="matrix" values="0 0 0 0 0 0 0 0 0 0 0 0 0 0 0 0 0 0 127 0" result="hardAlpha"/>
<feOffset dy="4"/>
<feGaussianBlur stdDeviation="2"/>
<feComposite in2="hardAlpha" operator="out"/>
<feColorMatrix type="matrix" values="0 0 0 0 0 0 0 0 0 0 0 0 0 0 0 0 0 0 0.25 0"/>
<feBlend mode="normal" in2="BackgroundImageFix" result="effect1_dropShadow_150_2"/>
<feColorMatrix in="SourceAlpha" type="matrix" values="0 0 0 0 0 0 0 0 0 0 0 0 0 0 0 0 0 0 127 0" result="hardAlpha"/>
<feOffset dy="4"/>
<feGaussianBlur stdDeviation="2"/>
<feComposite in2="hardAlpha" operator="out"/>
<feColorMatrix type="matrix" values="0 0 0 0 0 0 0 0 0 0 0 0 0 0 0 0 0 0 0.25 0"/>
<feBlend mode="normal" in2="effect1_dropShadow_150_2" result="effect2_dropShadow_150_2"/>
<feColorMatrix in="SourceAlpha" type="matrix" values="0 0 0 0 0 0 0 0 0 0 0 0 0 0 0 0 0 0 127 0" result="hardAlpha"/>
<feOffset dy="4"/>
<feGaussianBlur stdDeviation="2"/>
<feComposite in2="hardAlpha" operator="out"/>
<feColorMatrix type="matrix" values="0 0 0 0 0 0 0 0 0 0 0 0 0 0 0 0 0 0 0.25 0"/>
<feBlend mode="normal" in2="effect2_dropShadow_150_2" result="effect3_dropShadow_150_2"/>
<feColorMatrix in="SourceAlpha" type="matrix" values="0 0 0 0 0 0 0 0 0 0 0 0 0 0 0 0 0 0 127 0" result="hardAlpha"/>
<feOffset dy="4"/>
<feGaussianBlur stdDeviation="2"/>
<feComposite in2="hardAlpha" operator="out"/>
<feColorMatrix type="matrix" values="0 0 0 0 0 0 0 0 0 0 0 0 0 0 0 0 0 0 0.25 0"/>
<feBlend mode="normal" in2="effect3_dropShadow_150_2" result="effect4_dropShadow_150_2"/>
<feBlend mode="normal" in="SourceGraphic" in2="effect4_dropShadow_150_2" result="shape"/>
</filter>
</defs>
</svg>
