<svg width="24" height="24" viewBox="0 0 24 24" fill="none" xmlns="http://www.w3.org/2000/svg">
<path d="M4.382 8.813V17.313C4.382 18.158 4.726 18.969 5.339 19.566C5.95687 20.1668 6.78522 20.502 7.647 20.5H16.353C17.219 20.5 18.049 20.164 18.661 19.566C18.9628 19.2733 19.2029 18.9232 19.3673 18.5363C19.5317 18.1493 19.6169 17.7334 19.618 17.313V8.813M4.382 8.813C3.48 8.813 2.75 8.099 2.75 7.219V5.094C2.75 4.214 3.481 3.5 4.382 3.5H19.618C20.52 3.5 21.25 4.214 21.25 5.094V7.219C21.25 8.099 20.519 8.813 19.618 8.813M4.382 8.813H19.618" stroke="black" stroke-width="1.5" stroke-linecap="round" stroke-linejoin="round"/>
<path d="M10.496 12.589C10.6444 12.2659 10.8962 12.0014 11.2117 11.8374C11.5271 11.6733 11.8882 11.619 12.238 11.683C12.4777 11.7197 12.7054 11.8121 12.9029 11.9528C13.1003 12.0934 13.262 12.2785 13.375 12.493C13.4565 12.6645 13.5007 12.8514 13.5047 13.0412C13.5088 13.2311 13.4726 13.4196 13.3985 13.5945C13.3244 13.7694 13.2142 13.9265 13.075 14.0557C12.9358 14.1849 12.7709 14.2832 12.591 14.344C12.4074 14.4133 12.2486 14.5355 12.1347 14.6952C12.0207 14.8549 11.9568 15.0449 11.951 15.241V15.611" stroke="black" stroke-width="1.5" stroke-miterlimit="10" stroke-linecap="round"/>
<path d="M11.922 17.656H11.926" stroke="black" stroke-width="1.5" stroke-linecap="round" stroke-linejoin="round"/>
</svg>
