<svg width="24" height="24" viewBox="0 0 24 24" fill="none" xmlns="http://www.w3.org/2000/svg">
<g clip-path="url(#clip0_111_2)">
<path d="M2.8 14L4.7 12.1C4.88333 11.9167 4.975 11.6833 4.975 11.4C4.975 11.1167 4.88333 10.8833 4.7 10.7C4.51667 10.5167 4.28333 10.425 4 10.425C3.71667 10.425 3.48333 10.5167 3.3 10.7L0.7 13.3C0.5 13.5 0.4 13.7333 0.4 14C0.4 14.2667 0.5 14.5 0.7 14.7L3.3 17.3C3.48333 17.4833 3.71667 17.575 4 17.575C4.28333 17.575 4.51667 17.4833 4.7 17.3C4.88333 17.1167 4.975 16.8833 4.975 16.6C4.975 16.3167 4.88333 16.0833 4.7 15.9L2.8 14ZM17.2 14L15.3 15.9C15.1167 16.0833 15.025 16.3167 15.025 16.6C15.025 16.8833 15.1167 17.1167 15.3 17.3C15.4833 17.4833 15.7167 17.575 16 17.575C16.2833 17.575 16.5167 17.4833 16.7 17.3L19.3 14.7C19.5 14.5 19.6 14.2667 19.6 14C19.6 13.7333 19.5 13.5 19.3 13.3L16.7 10.7C16.5167 10.5167 16.2833 10.425 16 10.425C15.7167 10.425 15.4833 10.5167 15.3 10.7C15.1167 10.8833 15.025 11.1167 15.025 11.4C15.025 11.6833 15.1167 11.9167 15.3 12.1L17.2 14ZM0 9V8C0 7.45 0.196 6.97933 0.588 6.588C0.98 6.19667 1.45067 6.00067 2 6H18C18.55 6 19.021 6.196 19.413 6.588C19.805 6.98 20.0007 7.45067 20 8V9C20 9.28333 19.904 9.521 19.712 9.713C19.52 9.905 19.2827 10.0007 19 10C18.7173 9.99933 18.48 9.90333 18.288 9.712C18.096 9.52067 18 9.28333 18 9V8H2V9C2 9.28333 1.904 9.521 1.712 9.713C1.52 9.905 1.28267 10.0007 1 10C0.717333 9.99933 0.48 9.90333 0.288 9.712C0.0960001 9.52067 0 9.28333 0 9ZM7 24C6.71667 24 6.47933 23.904 6.288 23.712C6.09667 23.52 6.00067 23.2827 6 23V22H2C1.45 22 0.979333 21.8043 0.588 21.413C0.196667 21.0217 0.000666667 20.5507 0 20V19.025C0 18.7417 0.0960001 18.5083 0.288 18.325C0.48 18.1417 0.717333 18.05 1 18.05C1.28267 18.05 1.52033 18.1457 1.713 18.337C1.90567 18.5283 2.00133 18.766 2 19.05V20H18V19.025C18 18.7417 18.096 18.5083 18.288 18.325C18.48 18.1417 18.7173 18.05 19 18.05C19.2827 18.05 19.5203 18.1457 19.713 18.337C19.9057 18.5283 20.0013 18.766 20 19.05V20C20 20.55 19.8043 21.021 19.413 21.413C19.0217 21.805 18.5507 22.0007 18 22H14V23C14 23.2833 13.904 23.521 13.712 23.713C13.52 23.905 13.2827 24.0007 13 24H7Z" fill="black"/>
</g>
<defs>
<clipPath id="clip0_111_2">
<rect width="24" height="24" fill="white"/>
</clipPath>
</defs>
</svg>
