<svg width="24" height="24" viewBox="0 0 24 24" fill="none" xmlns="http://www.w3.org/2000/svg">
<path d="M13.95 21.9C13.7 22.0333 13.446 22.0543 13.188 21.963C12.93 21.8717 12.734 21.7007 12.6 21.45L11.1 18.45C10.9667 18.2 10.946 17.946 11.038 17.688C11.13 17.43 11.3007 17.234 11.55 17.1C11.7993 16.966 12.0537 16.9453 12.313 17.038C12.5723 17.1307 12.768 17.3013 12.9 17.55L14.4 20.55C14.5333 20.8 14.5543 21.0543 14.463 21.313C14.3717 21.5717 14.2007 21.7673 13.95 21.9ZM19.95 21.9C19.7 22.0333 19.446 22.0543 19.188 21.963C18.93 21.8717 18.734 21.7007 18.6 21.45L17.1 18.45C16.9667 18.2 16.946 17.946 17.038 17.688C17.13 17.43 17.3007 17.234 17.55 17.1C17.7993 16.966 18.0537 16.9453 18.313 17.038C18.5723 17.1307 18.768 17.3013 18.9 17.55L20.4 20.55C20.5333 20.8 20.5543 21.0543 20.463 21.313C20.3717 21.5717 20.2007 21.7673 19.95 21.9ZM7.95 21.9C7.7 22.0333 7.446 22.0543 7.188 21.963C6.93 21.8717 6.734 21.7007 6.6 21.45L5.1 18.45C4.96667 18.2 4.946 17.946 5.038 17.688C5.13 17.43 5.30067 17.234 5.55 17.1C5.79933 16.966 6.05367 16.9453 6.313 17.038C6.57233 17.1307 6.768 17.3013 6.9 17.55L8.4 20.55C8.53333 20.8 8.55433 21.0543 8.463 21.313C8.37167 21.5717 8.20067 21.7673 7.95 21.9ZM7.5 16C5.98333 16 4.68767 15.4627 3.613 14.388C2.53833 13.3133 2.00067 12.0173 2 10.5C2 9.11667 2.45833 7.90833 3.375 6.875C4.29167 5.84167 5.425 5.23333 6.775 5.05C7.30833 4.1 8.03767 3.354 8.963 2.812C9.88833 2.27 10.9007 1.99933 12 2C13.5 2 14.8043 2.47933 15.913 3.438C17.0217 4.39667 17.6923 5.59233 17.925 7.025C19.075 7.125 20.0417 7.6 20.825 8.45C21.6083 9.3 22 10.3167 22 11.5C22 12.75 21.5627 13.8127 20.688 14.688C19.8133 15.5633 18.7507 16.0007 17.5 16H7.5ZM7.5 14H17.5C18.2 14 18.7917 13.7583 19.275 13.275C19.7583 12.7917 20 12.2 20 11.5C20 10.8 19.7583 10.2083 19.275 9.725C18.7917 9.24167 18.2 9 17.5 9H16V8C16 6.9 15.6083 5.95833 14.825 5.175C14.0417 4.39167 13.1 4 12 4C11.2 4 10.471 4.21667 9.813 4.65C9.155 5.08333 8.659 5.66667 8.325 6.4L8.075 7H7.45C6.5 7.03333 5.68767 7.38767 5.013 8.063C4.33833 8.73833 4.00067 9.55067 4 10.5C4 11.4667 4.34167 12.2917 5.025 12.975C5.70833 13.6583 6.53333 14 7.5 14Z" fill="black"/>
</svg>
