<svg width="24" height="24" viewBox="0 0 24 24" fill="none" xmlns="http://www.w3.org/2000/svg">
<path d="M2 22C1.71667 22 1.47933 21.904 1.288 21.712C1.09667 21.52 1.00067 21.2827 1 21V13L3.125 7.925C3.24167 7.64167 3.425 7.41667 3.675 7.25C3.925 7.08333 4.2 7 4.5 7H13.5C13.8 7 14.075 7.08333 14.325 7.25C14.575 7.41667 14.7583 7.64167 14.875 7.925L17 13V21C17 21.2833 16.904 21.521 16.712 21.713C16.52 21.905 16.2827 22.0007 16 22H15C14.7167 22 14.4793 21.904 14.288 21.712C14.0967 21.52 14.0007 21.2827 14 21V20H4V21C4 21.2833 3.904 21.521 3.712 21.713C3.52 21.905 3.28267 22.0007 3 22H2ZM3.8 11H14.175L13.35 9H4.65L3.8 11ZM5.5 17C5.91667 17 6.271 16.8543 6.563 16.563C6.855 16.2717 7.00067 15.9173 7 15.5C6.99933 15.0827 6.85367 14.7287 6.563 14.438C6.27233 14.1473 5.918 14.0013 5.5 14C5.082 13.9987 4.728 14.1447 4.438 14.438C4.148 14.7313 4.002 15.0853 4 15.5C3.998 15.9147 4.144 16.269 4.438 16.563C4.732 16.857 5.086 17.0027 5.5 17ZM12.5 17C12.9167 17 13.271 16.8543 13.563 16.563C13.855 16.2717 14.0007 15.9173 14 15.5C13.9993 15.0827 13.8537 14.7287 13.563 14.438C13.2723 14.1473 12.918 14.0013 12.5 14C12.082 13.9987 11.728 14.1447 11.438 14.438C11.148 14.7313 11.002 15.0853 11 15.5C10.998 15.9147 11.144 16.269 11.438 16.563C11.732 16.857 12.086 17.0027 12.5 17ZM18 19V10.4L16.175 6H5.675L6.125 4.925C6.24167 4.64167 6.425 4.41667 6.675 4.25C6.925 4.08333 7.2 4 7.5 4H16.5C16.8 4 17.075 4.08333 17.325 4.25C17.575 4.41667 17.7583 4.64167 17.875 4.925L20 10V18C20 18.2833 19.904 18.521 19.712 18.713C19.52 18.905 19.2827 19.0007 19 19H18ZM21 16V7.4L19.175 3H8.675L9.125 1.925C9.24167 1.64167 9.425 1.41667 9.675 1.25C9.925 1.08333 10.2 1 10.5 1H19.5C19.8 1 20.075 1.08333 20.325 1.25C20.575 1.41667 20.7583 1.64167 20.875 1.925L23 7V15C23 15.2833 22.904 15.521 22.712 15.713C22.52 15.905 22.2827 16.0007 22 16H21Z" fill="black"/>
</svg>
