<svg width="24" height="24" viewBox="0 0 24 24" fill="none" xmlns="http://www.w3.org/2000/svg">
<path d="M9.983 20.048L7.893 16.102L3.927 13.992L5.01 12.915L8.462 13.502L11.512 10.452L4.01 7.25L5.398 5.87L14.523 7.435L17.643 4.296C17.923 4.01533 18.2663 3.875 18.673 3.875C19.0797 3.875 19.423 4.01533 19.703 4.296C19.9843 4.57667 20.125 4.91933 20.125 5.324C20.125 5.72867 19.9847 6.07133 19.704 6.352L16.559 9.477L18.125 18.597L16.731 19.991L13.542 12.489L10.492 15.539L11.065 18.966L9.983 20.048Z" fill="black"/>
</svg>
