<svg width="30" height="25" viewBox="0 0 30 25" fill="none" xmlns="http://www.w3.org/2000/svg">
<g clip-path="url(#clip0_95_282)">
<path d="M26.7807 5.72913H11.1753C9.85485 5.72913 8.77448 6.66663 8.77448 7.81246V17.1875C8.77448 17.74 9.02742 18.2699 9.47766 18.6606C9.92791 19.0513 10.5386 19.2708 11.1753 19.2708H26.7807C28.1131 19.2708 29.1815 18.3437 29.1815 17.1875V7.81246C29.1815 7.25993 28.9286 6.73002 28.4783 6.33932C28.0281 5.94862 27.4174 5.72913 26.7807 5.72913ZM26.7807 9.55204L18.978 13.0208L11.1753 9.55204V7.81246L18.978 11.2604L26.7807 7.81246V9.55204ZM6.37365 17.1875C6.37365 17.3645 6.40966 17.5312 6.43367 17.7083H1.572C0.909367 17.7083 0.371582 17.2395 0.371582 16.6666C0.371582 16.0937 0.909367 15.625 1.572 15.625H6.37365V17.1875ZM3.97282 7.29163H6.43367C6.40966 7.46871 6.37365 7.63538 6.37365 7.81246V9.37496H3.97282C3.3126 9.37496 2.77241 8.90621 2.77241 8.33329C2.77241 7.76038 3.3126 7.29163 3.97282 7.29163ZM1.572 12.5C1.572 11.927 2.11218 11.4583 2.77241 11.4583H6.37365V13.5416H2.77241C2.11218 13.5416 1.572 13.0729 1.572 12.5Z" fill="black"/>
</g>
<defs>
<clipPath id="clip0_95_282">
<rect width="28.8099" height="25" fill="white" transform="translate(0.371582)"/>
</clipPath>
</defs>
</svg>
