<svg width="29" height="24" viewBox="0 0 29 24" fill="none" xmlns="http://www.w3.org/2000/svg">
<path fill-rule="evenodd" clip-rule="evenodd" d="M17.6455 6.00011C17.6459 6.62076 17.4199 7.22624 16.9985 7.73309C16.5771 8.23995 15.9812 8.62323 15.2928 8.83011V11.0001H18.8219C19.7579 11.0001 20.6555 11.3162 21.3174 11.8788C21.9792 12.4414 22.351 13.2045 22.351 14.0001V15.1701C23.1362 15.406 23.7981 15.8703 24.2195 16.4809C24.641 17.0915 24.7949 17.8091 24.6541 18.5069C24.5134 19.2047 24.0869 19.8377 23.4502 20.294C22.8135 20.7503 22.0075 21.0006 21.1747 21.0006C20.3418 21.0006 19.5358 20.7503 18.8991 20.294C18.2624 19.8377 17.836 19.2047 17.6952 18.5069C17.5544 17.8091 17.7083 17.0915 18.1298 16.4809C18.5512 15.8703 19.2131 15.406 19.9983 15.1701V14.0001C19.9983 13.7349 19.8743 13.4805 19.6537 13.293C19.4331 13.1055 19.1339 13.0001 18.8219 13.0001H9.41096C9.09896 13.0001 8.79975 13.1055 8.57914 13.293C8.35853 13.4805 8.23459 13.7349 8.23459 14.0001V15.1701C9.0198 15.406 9.68163 15.8703 10.1031 16.4809C10.5245 17.0915 10.6785 17.8091 10.5377 18.5069C10.3969 19.2047 9.97047 19.8377 9.33375 20.294C8.69703 20.7503 7.89103 21.0006 7.05822 21.0006C6.2254 21.0006 5.4194 20.7503 4.78268 20.294C4.14596 19.8377 3.71952 19.2047 3.57874 18.5069C3.43795 17.8091 3.5919 17.0915 4.01335 16.4809C4.4348 15.8703 5.09663 15.406 5.88185 15.1701V14.0001C5.88185 13.2045 6.25366 12.4414 6.9155 11.8788C7.57734 11.3162 8.47498 11.0001 9.41096 11.0001H12.9401V8.83011C12.3297 8.64694 11.7903 8.32465 11.3809 7.89848C10.9715 7.4723 10.7078 6.95864 10.6186 6.41365C10.5295 5.86866 10.6183 5.31333 10.8754 4.80836C11.1324 4.30338 11.5479 3.86821 12.0763 3.55042C12.6047 3.23262 13.2257 3.04444 13.8714 3.00643C14.5172 2.96843 15.1628 3.08208 15.7376 3.33494C16.3125 3.58781 16.7945 3.97016 17.131 4.4402C17.4675 4.91024 17.6455 5.44988 17.6455 6.00011ZM14.1164 5.00011C13.8044 5.00011 13.5052 5.10547 13.2846 5.293C13.064 5.48054 12.9401 5.73489 12.9401 6.00011C12.9401 6.26533 13.064 6.51968 13.2846 6.70722C13.5052 6.89475 13.8044 7.00011 14.1164 7.00011C14.4284 7.00011 14.7276 6.89475 14.9483 6.70722C15.1689 6.51968 15.2928 6.26533 15.2928 6.00011C15.2928 5.73489 15.1689 5.48054 14.9483 5.293C14.7276 5.10547 14.4284 5.00011 14.1164 5.00011ZM7.05822 17.0001C6.74622 17.0001 6.44701 17.1055 6.2264 17.293C6.00579 17.4805 5.88185 17.7349 5.88185 18.0001C5.88185 18.2653 6.00579 18.5197 6.2264 18.7072C6.44701 18.8948 6.74622 19.0001 7.05822 19.0001C7.37021 19.0001 7.66942 18.8948 7.89004 18.7072C8.11065 18.5197 8.23459 18.2653 8.23459 18.0001C8.23459 17.7349 8.11065 17.4805 7.89004 17.293C7.66942 17.1055 7.37021 17.0001 7.05822 17.0001ZM21.1747 17.0001C20.8627 17.0001 20.5634 17.1055 20.3428 17.293C20.1222 17.4805 19.9983 17.7349 19.9983 18.0001C19.9983 18.2653 20.1222 18.5197 20.3428 18.7072C20.5634 18.8948 20.8627 19.0001 21.1747 19.0001C21.4866 19.0001 21.7859 18.8948 22.0065 18.7072C22.2271 18.5197 22.351 18.2653 22.351 18.0001C22.351 17.7349 22.2271 17.4805 22.0065 17.293C21.7859 17.1055 21.4866 17.0001 21.1747 17.0001Z" fill="black"/>
</svg>
