<svg width="21" height="22" viewBox="0 0 21 22" fill="none" xmlns="http://www.w3.org/2000/svg">
<g clip-path="url(#clip0_95_239)">
<mask id="mask0_95_239" style="mask-type:luminance" maskUnits="userSpaceOnUse" x="0" y="0" width="21" height="22">
<path d="M0 0H21V22H0V0Z" fill="white"/>
<path d="M16.8646 15.2891C16.795 15.4993 16.6492 15.6724 16.4588 15.7708C16.2683 15.8693 16.0485 15.8851 15.847 15.8151C15.6454 15.745 15.4783 15.5945 15.3818 15.3963C15.2854 15.1981 15.2673 14.9681 15.3316 14.756C15.6114 13.8622 15.7527 12.9272 15.7499 11.9866C15.7499 8.21612 13.5239 5.71489 10.4999 5.71489C7.47594 5.71489 5.24994 8.21612 5.24994 11.9866C5.24994 12.9512 5.39371 13.8879 5.66832 14.756C5.73256 14.9681 5.71449 15.1981 5.61803 15.3963C5.52156 15.5945 5.35447 15.745 5.15291 15.8151C4.95136 15.8851 4.73156 15.8693 4.54111 15.7708C4.35066 15.6724 4.20488 15.4993 4.13532 15.2891C3.80095 14.2234 3.63188 13.1084 3.63455 11.9866C3.63455 7.30735 6.55759 4.02258 10.4999 4.02258C14.4423 4.02258 17.3653 7.30735 17.3653 11.9866C17.3653 13.1323 17.1941 14.2484 16.8646 15.2891Z" fill="black"/>
<path d="M7.25048 16.9518C6.61036 16.9389 6.00113 16.6611 5.55589 16.1791C5.11065 15.6971 4.86559 15.0501 4.87425 14.3795V14.3609C4.88318 13.6927 5.14493 13.0556 5.60199 12.5894C6.05905 12.1233 6.67404 11.8663 7.31186 11.8749H7.32559C7.53896 11.8793 7.74199 11.9721 7.8903 12.1328C8.03861 12.2936 8.12016 12.5093 8.11713 12.7329L8.07351 16.1175C8.07204 16.229 8.04956 16.3391 8.00735 16.4414C7.96513 16.5437 7.90403 16.6364 7.82755 16.7139C7.75107 16.7914 7.66071 16.8523 7.56168 16.8932C7.46264 16.934 7.35688 16.9539 7.25048 16.9518ZM13.8025 11.8461C14.4426 11.859 15.0518 12.1368 15.4971 12.6188C15.9423 13.1008 16.1874 13.7477 16.1787 14.4184V14.437C16.1698 15.1052 15.908 15.7423 15.451 16.2085C14.9939 16.6746 14.3789 16.9316 13.7411 16.923H13.7282C13.5147 16.9188 13.3114 16.8262 13.1629 16.6654C13.0145 16.5046 12.9328 16.2887 12.9358 16.065L12.9794 12.6804C12.9809 12.5689 13.0034 12.4588 13.0456 12.3565C13.0878 12.2541 13.1489 12.1615 13.2254 12.084C13.3019 12.0065 13.3922 11.9456 13.4913 11.9047C13.5903 11.8639 13.6961 11.844 13.8025 11.8461Z" fill="black"/>
</mask>
<g mask="url(#mask0_95_239)">
<path d="M10.5 22C16.299 22 21 17.0751 21 11C21 4.92487 16.299 0 10.5 0C4.70101 0 0 4.92487 0 11C0 17.0751 4.70101 22 10.5 22Z" fill="black"/>
</g>
</g>
<defs>
<clipPath id="clip0_95_239">
<rect width="21" height="22" fill="white"/>
</clipPath>
</defs>
</svg>
