<svg width="30" height="30" viewBox="0 0 30 30" fill="none" xmlns="http://www.w3.org/2000/svg">
<path d="M5.75 11.9837L6.497 11.9197C6.47978 11.7276 6.38924 11.5496 6.24416 11.4225C6.09909 11.2954 5.91064 11.2291 5.71796 11.2374C5.52528 11.2456 5.34318 11.3277 5.20948 11.4667C5.07578 11.6057 5.00076 11.7909 5 11.9837H5.75ZM22.986 13.8067L22.28 17.8867L23.759 18.1427L24.464 14.0627L22.986 13.8067ZM15.995 22.9997H11.346V24.4997H15.995V22.9997ZM10.435 22.1627L9.623 12.7697L8.128 12.8987L8.941 22.2917L10.435 22.1627ZM22.28 17.8867C21.773 20.8167 19.131 22.9997 15.995 22.9997V24.4997C19.821 24.4997 23.121 21.8307 23.759 18.1427L22.28 17.8867ZM16.005 6.84972L15.342 10.8947L16.822 11.1367L17.485 7.09272L16.005 6.84972ZM9.938 11.9957L11.377 10.7557L10.397 9.61972L8.96 10.8597L9.938 11.9957ZM13.994 6.72172L14.47 4.88772L13.018 4.51172L12.542 6.34472L13.994 6.72172ZM15.188 4.52772L15.333 4.57472L15.792 3.14672L15.647 3.09972L15.188 4.52772ZM13.273 8.56572C13.5852 7.98163 13.8272 7.36266 13.994 6.72172L12.542 6.34472C12.4042 6.87101 12.2055 7.37944 11.95 7.85972L13.273 8.56572ZM15.333 4.57472C15.4755 4.61838 15.6047 4.69711 15.7088 4.80368C15.813 4.91026 15.8887 5.04128 15.929 5.18472L17.381 4.80872C17.2781 4.42002 17.0784 4.06373 16.8005 3.77309C16.5227 3.48246 16.1757 3.26697 15.792 3.14672L15.333 4.57472ZM14.47 4.88772C14.4902 4.81584 14.5257 4.74915 14.574 4.69221C14.6224 4.63526 14.6824 4.58939 14.75 4.55772L14.099 3.20672C13.567 3.46272 13.167 3.93672 13.018 4.51172L14.47 4.88772ZM14.75 4.55772C14.887 4.49275 15.0435 4.48203 15.188 4.52772L15.647 3.09972C15.1363 2.93645 14.5824 2.97473 14.099 3.20672L14.75 4.55772ZM16.904 12.7337H22.084V11.2337H16.904V12.7337ZM7.469 23.1557L6.497 11.9197L5.003 12.0487L5.973 23.2847L7.469 23.1557ZM6.5 23.2627V11.9837H5V23.2627H6.5ZM5.973 23.2847C5.96995 23.2484 5.97549 23.2118 5.98733 23.1773C5.99918 23.1428 6.01807 23.1112 6.0428 23.0844C6.06753 23.0576 6.09757 23.0362 6.131 23.0216C6.16443 23.0071 6.20053 22.9996 6.237 22.9997V24.4997C6.963 24.4997 7.531 23.8777 7.469 23.1557L5.973 23.2847ZM17.485 7.09272C17.6107 6.33251 17.5753 5.55436 17.381 4.80872L15.929 5.18572C16.0708 5.72891 16.0967 6.29587 16.005 6.84972L17.485 7.09272ZM11.346 22.9997C11.117 22.9993 10.8965 22.9132 10.7279 22.7582C10.5592 22.6033 10.4547 22.3909 10.435 22.1627L8.941 22.2917C8.99303 22.8939 9.26888 23.4547 9.71411 23.8634C10.1593 24.2722 10.7416 24.4992 11.346 24.4997V22.9997ZM11.377 10.7557C12.057 10.1697 12.789 9.47272 13.274 8.56572L11.95 7.85972C11.604 8.50872 11.053 9.05572 10.397 9.61972L11.377 10.7557ZM24.464 14.0627C24.5242 13.7157 24.5078 13.3597 24.416 13.0197C24.3241 12.6797 24.1591 12.3639 23.9323 12.0944C23.7056 11.8249 23.4227 11.6082 23.1034 11.4595C22.7841 11.3109 22.4362 11.2338 22.084 11.2337V12.7337C22.651 12.7337 23.084 13.2457 22.986 13.8067L24.464 14.0627ZM6.237 22.9997C6.383 22.9997 6.5 23.1177 6.5 23.2627H5C5 23.9447 5.553 24.4997 6.237 24.4997V22.9997ZM15.342 10.8947C15.3047 11.1213 15.3172 11.3533 15.3785 11.5746C15.4399 11.7958 15.5486 12.0011 15.6972 12.1762C15.8458 12.3512 16.0307 12.4919 16.2391 12.5883C16.4475 12.6848 16.6744 12.7337 16.904 12.7337V11.2337C16.8918 11.2338 16.8797 11.2321 16.8687 11.227C16.8576 11.2219 16.8478 11.2143 16.84 11.205C16.8321 11.1956 16.8265 11.1847 16.8234 11.1729C16.8203 11.1611 16.8198 11.1487 16.822 11.1367L15.342 10.8947ZM9.623 12.7697C9.6108 12.6249 9.63208 12.4793 9.687 12.3448C9.74193 12.2102 9.82794 12.0906 9.938 11.9957L8.958 10.8587C8.66814 11.1089 8.44177 11.4242 8.29748 11.7788C8.1532 12.1335 8.09511 12.5173 8.128 12.8987L9.623 12.7697Z" fill="#00A5FF"/>
</svg>
