<svg width="21" height="22" viewBox="0 0 21 22" fill="none" xmlns="http://www.w3.org/2000/svg">
<path fill-rule="evenodd" clip-rule="evenodd" d="M3.031 3.17537C1.75 4.51921 1.75 6.67887 1.75 11C1.75 15.3212 1.75 17.4818 3.031 18.8238C4.31375 20.1667 6.37525 20.1667 10.5 20.1667C14.6248 20.1667 16.6871 20.1667 17.9681 18.8238C19.25 17.4827 19.25 15.3212 19.25 11C19.25 6.67887 19.25 4.51829 17.9681 3.17537C16.688 1.83337 14.6248 1.83337 10.5 1.83337C6.37525 1.83337 4.31288 1.83337 3.031 3.17537ZM5.621 8.72671C5.73242 8.58672 5.89234 8.49881 6.06561 8.48231C6.23888 8.46581 6.41131 8.52206 6.545 8.63871L6.78737 8.84954C7.31675 9.31154 7.76737 9.70479 8.07887 10.0669C8.4105 10.4519 8.66862 10.8928 8.66862 11.4584C8.66862 12.024 8.4105 12.4658 8.07887 12.8499C7.76737 13.212 7.31675 13.6052 6.78737 14.0672L6.545 14.278C6.47914 14.3384 6.40242 14.3844 6.31936 14.4132C6.2363 14.442 6.14857 14.4532 6.06133 14.446C5.9741 14.4388 5.88912 14.4134 5.8114 14.3712C5.73367 14.3291 5.66477 14.2712 5.60876 14.2007C5.55274 14.1303 5.51073 14.0489 5.4852 13.9612C5.45967 13.8735 5.45114 13.7813 5.46011 13.6901C5.46907 13.599 5.49536 13.5106 5.53742 13.4302C5.57947 13.3498 5.63645 13.279 5.705 13.222L5.90975 13.0433C6.48638 12.5391 6.8635 12.2091 7.105 11.9286C7.33425 11.6628 7.35612 11.5372 7.35612 11.4584C7.35612 11.3795 7.33425 11.2549 7.105 10.9881C6.86263 10.7076 6.48638 10.3767 5.90975 9.87346L5.705 9.69471C5.57137 9.57798 5.48746 9.41044 5.47171 9.22893C5.45596 9.04741 5.50966 8.86676 5.621 8.72671ZM15.5312 13.75C15.5312 13.9324 15.4621 14.1072 15.339 14.2362C15.216 14.3651 15.049 14.4375 14.875 14.4375H10.5C10.326 14.4375 10.159 14.3651 10.036 14.2362C9.91289 14.1072 9.84375 13.9324 9.84375 13.75C9.84375 13.5677 9.91289 13.3928 10.036 13.2639C10.159 13.135 10.326 13.0625 10.5 13.0625H14.875C15.049 13.0625 15.216 13.135 15.339 13.2639C15.4621 13.3928 15.5312 13.5677 15.5312 13.75Z" fill="#00292E"/>
</svg>
