<svg width="39" height="24" viewBox="0 0 39 24" fill="none" xmlns="http://www.w3.org/2000/svg">
<path fill-rule="evenodd" clip-rule="evenodd" d="M8.23387 5.63605C8.42134 5.82358 8.52666 6.07788 8.52666 6.34305C8.52666 6.60821 8.42134 6.86252 8.23387 7.05005C7.58379 7.70007 7.06811 8.47177 6.71628 9.3211C6.36445 10.1704 6.18337 11.0807 6.18337 12C6.18337 12.9194 6.36445 13.8297 6.71628 14.679C7.06811 15.5283 7.58379 16.3 8.23387 16.95C8.32938 17.0423 8.40557 17.1526 8.45797 17.2746C8.51038 17.3966 8.53797 17.5279 8.53912 17.6606C8.54028 17.7934 8.51498 17.9251 8.4647 18.048C8.41441 18.1709 8.34016 18.2825 8.24627 18.3764C8.15238 18.4703 8.04072 18.5446 7.91783 18.5949C7.79493 18.6452 7.66325 18.6705 7.53047 18.6693C7.39769 18.6681 7.26647 18.6406 7.14447 18.5882C7.02246 18.5357 6.91212 18.4596 6.81987 18.364C5.98413 17.5283 5.32119 16.5362 4.86889 15.4442C4.41659 14.3523 4.1838 13.182 4.1838 12C4.1838 10.8181 4.41659 9.64781 4.86889 8.55587C5.32119 7.46393 5.98413 6.47178 6.81987 5.63605C7.0074 5.44858 7.26171 5.34326 7.52687 5.34326C7.79204 5.34326 8.04635 5.44858 8.23387 5.63605ZM18.1339 5.63605C18.3214 5.44858 18.5757 5.34326 18.8409 5.34326C19.106 5.34326 19.3603 5.44858 19.5479 5.63605C20.3836 6.47178 21.0466 7.46393 21.4989 8.55587C21.9512 9.64781 22.184 10.8181 22.184 12C22.184 13.182 21.9512 14.3523 21.4989 15.4442C21.0466 16.5362 20.3836 17.5283 19.5479 18.364C19.4556 18.4596 19.3453 18.5357 19.2233 18.5882C19.1013 18.6406 18.9701 18.6681 18.8373 18.6693C18.7045 18.6705 18.5728 18.6452 18.4499 18.5949C18.327 18.5446 18.2154 18.4703 18.1215 18.3764C18.0276 18.2825 17.9533 18.1709 17.9031 18.048C17.8528 17.9251 17.8275 17.7934 17.8286 17.6606C17.8298 17.5279 17.8574 17.3966 17.9098 17.2746C17.9622 17.1526 18.0384 17.0423 18.1339 16.95C18.784 16.3 19.2996 15.5283 19.6515 14.679C20.0033 13.8297 20.1844 12.9194 20.1844 12C20.1844 11.0807 20.0033 10.1704 19.6515 9.3211C19.2996 8.47177 18.784 7.70007 18.1339 7.05005C17.9464 6.86252 17.8411 6.60821 17.8411 6.34305C17.8411 6.07788 17.9464 5.82358 18.1339 5.63605ZM11.0629 8.46405C11.2503 8.65158 11.3557 8.90588 11.3557 9.17105C11.3557 9.43621 11.2503 9.69052 11.0629 9.87805C10.7842 10.1566 10.5632 10.4874 10.4124 10.8514C10.2616 11.2154 10.184 11.6055 10.184 11.9995C10.184 12.3936 10.2616 12.7837 10.4124 13.1477C10.5632 13.5117 10.7842 13.8425 11.0629 14.121C11.1557 14.214 11.2294 14.3242 11.2796 14.4456C11.3298 14.567 11.3556 14.6971 11.3556 14.8284C11.3555 14.9598 11.3296 15.0898 11.2793 15.2111C11.229 15.3325 11.1553 15.4427 11.0624 15.5355C10.9695 15.6284 10.8592 15.702 10.7378 15.7523C10.6164 15.8025 10.4864 15.8283 10.355 15.8283C10.2237 15.8282 10.0936 15.8023 9.97229 15.752C9.85095 15.7017 9.74072 15.628 9.64787 15.535C8.71052 14.5974 8.18394 13.3259 8.18394 12C8.18394 10.6742 8.71052 9.40269 9.64787 8.46505C9.74075 8.37207 9.85103 8.29831 9.97243 8.24799C10.0938 8.19766 10.224 8.17176 10.3554 8.17176C10.4868 8.17176 10.6169 8.19766 10.7383 8.24799C10.8597 8.29831 10.97 8.37107 11.0629 8.46405ZM15.3049 8.46505C15.3977 8.37207 15.508 8.29831 15.6294 8.24799C15.7508 8.19766 15.881 8.17176 16.0124 8.17176C16.1438 8.17176 16.2739 8.19766 16.3953 8.24799C16.5167 8.29831 16.627 8.37207 16.7199 8.46505C17.1843 8.92936 17.5527 9.48061 17.8041 10.0873C18.0554 10.694 18.1848 11.3443 18.1848 12.001C18.1848 12.6578 18.0554 13.3081 17.8041 13.9148C17.5527 14.5215 17.1843 15.0727 16.7199 15.537C16.5322 15.7247 16.2777 15.8301 16.0124 15.8301C15.747 15.8301 15.4925 15.7247 15.3049 15.537C15.1172 15.3494 15.0118 15.0949 15.0118 14.8295C15.0118 14.5642 15.1172 14.3097 15.3049 14.122C15.8673 13.5595 16.1832 12.7965 16.1832 12.001C16.1832 11.2056 15.8673 10.4426 15.3049 9.88005C15.2119 9.78718 15.1381 9.67689 15.0878 9.55549C15.0375 9.43409 15.0116 9.30396 15.0116 9.17255C15.0116 9.04113 15.0375 8.91101 15.0878 8.78961C15.1381 8.66821 15.2119 8.55792 15.3049 8.46505ZM13.1839 11C13.4491 11 13.7034 11.1054 13.891 11.2929C14.0785 11.4805 14.1839 11.7348 14.1839 12V12.01C14.1839 12.2753 14.0785 12.5296 13.891 12.7172C13.7034 12.9047 13.4491 13.01 13.1839 13.01C12.9187 13.01 12.6643 12.9047 12.4768 12.7172C12.2892 12.5296 12.1839 12.2753 12.1839 12.01V12C12.1839 11.7348 12.2892 11.4805 12.4768 11.2929C12.6643 11.1054 12.9187 11 13.1839 11Z" fill="black"/>
</svg>
