<svg width="21" height="22" viewBox="0 0 21 22" fill="none" xmlns="http://www.w3.org/2000/svg">
<g clip-path="url(#clip0_95_235)">
<path d="M6.46799 11.0046V14.6362M8.20049 12.8212H4.73549M7.59899 7.11377H6.22499C5.11766 7.11403 4.0493 7.54201 3.22432 8.31582C2.39934 9.08963 1.87566 10.1549 1.75349 11.3079L1.13549 17.1379C1.04775 17.9743 1.24345 18.8165 1.68838 19.5171C2.1333 20.2176 2.79914 20.7321 3.56946 20.9704C4.33979 21.2088 5.16558 21.1559 5.90244 20.821C6.63931 20.4861 7.24035 19.8905 7.60049 19.1383L8.14049 18.0069H12.597L13.137 19.1383C13.4971 19.8907 14.0983 20.4865 14.8354 20.8215C15.5724 21.1564 16.3985 21.2093 17.1689 20.9707C17.9394 20.7321 18.6053 20.2173 19.05 19.5163C19.4948 18.8154 19.6902 17.9729 19.602 17.1363L18.984 11.3063" stroke="black" stroke-linecap="round" stroke-linejoin="round"/>
<path d="M12.9661 13.728C12.9661 13.6246 13.0052 13.5255 13.075 13.4524C13.1448 13.3793 13.2394 13.3382 13.3381 13.3382C13.4367 13.3382 13.5313 13.3793 13.6011 13.4524C13.6709 13.5255 13.7101 13.6246 13.7101 13.728C13.7133 13.7811 13.7061 13.8344 13.6889 13.8845C13.6717 13.9346 13.6449 13.9805 13.6101 14.0194C13.5753 14.0582 13.5333 14.0892 13.4866 14.1103C13.4399 14.1315 13.3896 14.1424 13.3388 14.1424C13.288 14.1424 13.2377 14.1315 13.191 14.1103C13.1443 14.0892 13.1023 14.0582 13.0675 14.0194C13.0327 13.9805 13.0059 13.9346 12.9887 13.8845C12.9715 13.8344 12.9643 13.7811 12.9676 13.728M10.7626 6.27624C10.2361 6.17881 10.2361 5.38838 10.7626 5.29253C11.6945 5.12176 12.5568 4.66454 13.2401 3.97899C13.9233 3.29345 14.3965 2.41054 14.5996 1.44253L14.6311 1.28853C14.7451 0.743241 15.4861 0.738526 15.6046 1.28381L15.6436 1.46138C15.8531 2.42565 16.3302 3.30346 17.0148 3.98433C17.6994 4.6652 18.561 5.11872 19.4911 5.28781C20.0206 5.38367 20.0206 6.18038 19.4911 6.27781C18.5612 6.44719 17.7 6.90083 17.0157 7.58168C16.3313 8.26253 15.8545 9.14018 15.6451 10.1042L15.6061 10.2802C15.4876 10.824 14.7466 10.8208 14.6326 10.2755L14.6026 10.1247C14.3993 9.15622 13.9257 8.27301 13.2419 7.58742C12.558 6.90184 11.695 6.44644 10.7626 6.27624Z" stroke="black" stroke-linecap="round" stroke-linejoin="round"/>
</g>
<defs>
<clipPath id="clip0_95_235">
<rect width="21" height="22" fill="white"/>
</clipPath>
</defs>
</svg>
