<svg width="18" height="18" viewBox="0 0 18 18" fill="none" xmlns="http://www.w3.org/2000/svg">
<g clip-path="url(#clip0_121_8)">
<path fill-rule="evenodd" clip-rule="evenodd" d="M9.67751 11.9976C10.4233 11.5664 11.0747 10.9897 11.5932 10.3017C11.4261 10.0418 11.3072 9.75396 11.2422 9.45189L11.2178 9.33875C11.1478 9.01572 10.9828 8.72098 10.7441 8.49236C10.5054 8.26373 10.2038 8.11164 9.87808 8.0556C7.21408 7.59274 7.21408 3.76903 9.87808 3.30489C10.1927 3.25073 10.485 3.10692 10.7199 2.89071C10.9548 2.67451 11.1223 2.3951 11.2024 2.08603C10.5759 1.4034 9.80933 0.864245 8.9551 0.505498C8.10087 0.146751 7.17919 -0.0231106 6.25319 0.00754952C5.32719 0.0382096 4.41876 0.268667 3.59013 0.683134C2.7615 1.0976 2.03226 1.68628 1.45234 2.40886C0.872428 3.13143 0.455555 3.97081 0.230278 4.86951C0.00500163 5.76821 -0.0233542 6.70499 0.147153 7.61567C0.31766 8.52635 0.683001 9.38941 1.21815 10.1457C1.7533 10.9021 2.44561 11.5338 3.24765 11.9976V13.5006C3.24765 13.8416 3.38311 14.1686 3.62423 14.4097C3.86534 14.6509 4.19237 14.7863 4.53336 14.7863H8.39051C8.7315 14.7863 9.05853 14.6509 9.29964 14.4097C9.54076 14.1686 9.67622 13.8416 9.67622 13.5006L9.67751 11.9976ZM3.24894 17.0363C3.24894 16.7806 3.35053 16.5353 3.53137 16.3545C3.71221 16.1736 3.95748 16.072 4.21322 16.072H8.71322C8.96896 16.072 9.21423 16.1736 9.39507 16.3545C9.57591 16.5353 9.67751 16.7806 9.67751 17.0363C9.67751 17.2921 9.57591 17.5373 9.39507 17.7182C9.21423 17.899 8.96896 18.0006 8.71322 18.0006H4.21322C3.95748 18.0006 3.71221 17.899 3.53137 17.7182C3.35053 17.5373 3.24894 17.2921 3.24894 17.0363ZM12.6089 2.20817C12.8442 1.13332 14.3742 1.12689 14.6185 2.19917L14.6301 2.2506L14.6532 2.35089C14.792 2.93818 15.0999 3.4719 15.5389 3.88598C15.9779 4.30006 16.5287 4.57633 17.1231 4.6806C18.2442 4.87603 18.2442 6.48574 17.1231 6.68117C16.5252 6.78591 15.9716 7.06462 15.5313 7.48244C15.0911 7.90026 14.7839 8.43862 14.6481 9.03017L14.6185 9.16132C14.3742 10.2349 12.8429 10.2285 12.6064 9.15232L12.5819 9.04046C12.4523 8.44663 12.1488 7.90486 11.7101 7.48422C11.2713 7.06357 10.7173 6.78312 10.1185 6.6786C8.99865 6.48446 8.99865 4.87732 10.1185 4.68189C10.7152 4.57813 11.2676 4.29966 11.7059 3.88173C12.1442 3.4638 12.4486 2.92522 12.5806 2.33417L12.5999 2.2506L12.6089 2.20817Z" fill="black"/>
</g>
<defs>
<clipPath id="clip0_121_8">
<rect width="18" height="18" fill="white"/>
</clipPath>
</defs>
</svg>
